<?xml version="1.0" standalone="no"?><!DOCTYPE svg PUBLIC "-//W3C//DTD SVG 1.1//EN" "http://www.w3.org/Graphics/SVG/1.1/DTD/svg11.dtd"><svg t="1656156430381" class="icon" viewBox="0 0 1024 1024" version="1.1" xmlns="http://www.w3.org/2000/svg" p-id="1903" xmlns:xlink="http://www.w3.org/1999/xlink" width="48" height="48"><defs><style type="text/css"></style></defs><path d="M647.454 776.332V173.205c0-21.332-17.306-38.635-38.636-38.635H8.519v641.762h638.935z" fill="#FFFFFF" p-id="1904"></path><path d="M647.454 784.851H8.519c-4.709 0-8.519-3.826-8.519-8.519V134.57c0-4.692 3.81-8.519 8.519-8.519h600.299c26.006 0 47.154 21.165 47.154 47.154v603.127c0.001 4.692-3.81 8.519-8.518 8.519zM17.039 767.813h621.895V173.205c0-16.605-13.51-30.116-30.115-30.116H17.039v624.724z" fill="#040000" p-id="1905"></path><path d="M491.281 414.967L357.803 296.764v59.768H8.519v119.267h349.284v57.405z" fill="#5370B0" p-id="1906"></path><path d="M349.284 552.139v-67.82H0V348.013h349.284V277.83l154.842 137.138-154.842 137.171zM17.039 467.28h349.284v46.988l112.113-99.301L366.323 315.7v49.35H17.039v102.23z" fill="#0D0B0B" p-id="1907"></path><path d="M647.454 668.445H8.519c-4.709 0-8.519-3.827-8.519-8.519 0-4.693 3.81-8.521 8.519-8.521h638.935c4.708 0 8.519 3.827 8.519 8.521 0 4.692-3.811 8.519-8.519 8.519zM647.454 728.045h-195.94c-4.709 0-8.519-3.827-8.519-8.519 0-4.69 3.81-8.521 8.519-8.521h195.94c4.708 0 8.519 3.83 8.519 8.521 0 4.692-3.811 8.519-8.519 8.519z" fill="#040000" p-id="1908"></path><path d="M657.004 276.565h184.559l173.262 289.65v210.117H657.004z" fill="#FFFFFF" p-id="1909"></path><path d="M1014.825 784.851H657.004c-4.709 0-8.519-3.826-8.519-8.519V276.565c0-4.692 3.81-8.519 8.519-8.519h184.559a8.466 8.466 0 0 1 7.305 4.16l173.261 289.649a8.357 8.357 0 0 1 1.216 4.359v210.117c-0.001 4.693-3.812 8.52-8.52 8.52z m-349.303-17.038h340.783V568.578L836.736 285.084H665.522v482.729z" fill="#040000" p-id="1910"></path><path d="M1014.825 569.077H657.004c-4.709 0-8.519-3.827-8.519-8.52 0-4.691 3.81-8.519 8.519-8.519h357.821c4.708 0 8.519 3.827 8.519 8.519 0 4.693-3.811 8.52-8.519 8.52z" fill="#040000" p-id="1911"></path><path d="M699.567 324.152l110.749 0.134L926.754 520.06H699.567z" fill="#8AC8EB" p-id="1912"></path><path d="M927.187 528.58h-227.62c-4.711 0-8.52-3.828-8.52-8.521V324.152c0-2.262 0.898-4.425 2.495-6.022a8.516 8.516 0 0 1 6.024-2.497h0.016l110.748 0.133a8.538 8.538 0 0 1 7.306 4.16L932.927 513.77c1.697 1.563 2.778 3.794 2.778 6.289 0.001 4.693-3.826 8.521-8.518 8.521z m-219.1-17.038h203.692L805.473 332.805l-97.386-0.134v178.871z" fill="#040000" p-id="1913"></path><path d="M951.596 659.927h63.229v41.863h-63.229z" fill="#F6D57D" p-id="1914"></path><path d="M1023.344 710.309h-80.268v-58.902h80.268v58.902z m-63.23-17.038h46.191v-24.825h-46.191v24.825z" fill="#040000" p-id="1915"></path><path d="M289.285 827.213c0 50.949-41.332 92.281-92.314 92.281-50.981 0-92.312-41.332-92.312-92.281 0-50.946 41.331-92.278 92.312-92.278 50.982 0 92.314 41.332 92.314 92.278z" fill="#D2D5DE" p-id="1916"></path><path d="M196.971 928.013c-55.589 0-100.832-45.226-100.832-100.8 0-55.572 45.242-100.797 100.832-100.797 55.591 0 100.833 45.225 100.833 100.797-0.001 55.574-45.242 100.8-100.833 100.8z m0-184.559c-46.206 0-83.793 37.57-83.793 83.759 0 46.191 37.587 83.762 83.793 83.762 46.207 0 83.794-37.57 83.794-83.762 0-46.189-37.587-83.759-83.794-83.759z" fill="#040000" p-id="1917"></path><path d="M221.697 827.213c0 13.645-11.048 24.727-24.726 24.727-13.677 0-24.725-11.082-24.725-24.727 0-13.644 11.048-24.725 24.725-24.725 13.678 0 24.726 11.081 24.726 24.725z" fill="#040000" p-id="1918"></path><path d="M934.625 827.213c0 50.949-41.35 92.281-92.331 92.281-50.98 0-92.312-41.332-92.312-92.281 0-50.946 41.331-92.278 92.312-92.278 50.981 0 92.331 41.332 92.331 92.278z" fill="#D2D5DE" p-id="1919"></path><path d="M842.294 928.013c-55.589 0-100.831-45.226-100.831-100.8 0-55.572 45.242-100.797 100.831-100.797 55.608 0 100.85 45.225 100.85 100.797 0 55.574-45.242 100.8-100.85 100.8z m0-184.559c-46.204 0-83.793 37.57-83.793 83.759 0 46.191 37.589 83.762 83.793 83.762 46.207 0 83.812-37.57 83.812-83.762-0.001-46.189-37.605-83.759-83.812-83.759z" fill="#040000" p-id="1920"></path><path d="M867.021 827.213c0 13.645-11.048 24.727-24.727 24.727-13.676 0-24.725-11.082-24.725-24.727 0-13.644 11.049-24.725 24.725-24.725 13.679 0 24.727 11.081 24.727 24.725z" fill="#040000" p-id="1921"></path></svg>