<?xml version="1.0" standalone="no"?><!DOCTYPE svg PUBLIC "-//W3C//DTD SVG 1.1//EN" "http://www.w3.org/Graphics/SVG/1.1/DTD/svg11.dtd"><svg t="1656338444072" class="icon" viewBox="0 0 1024 1024" version="1.1" xmlns="http://www.w3.org/2000/svg" p-id="5241" xmlns:xlink="http://www.w3.org/1999/xlink" width="200" height="200"><defs><style type="text/css">@font-face { font-family: feedback-iconfont; src: url("//at.alicdn.com/t/font_1031158_u69w8yhxdu.woff2?t=1630033759944") format("woff2"), url("//at.alicdn.com/t/font_1031158_u69w8yhxdu.woff?t=1630033759944") format("woff"), url("//at.alicdn.com/t/font_1031158_u69w8yhxdu.ttf?t=1630033759944") format("truetype"); }
</style></defs><path d="M674.5 817.8C621.1 848.7 560.1 865 498 865c-94.3 0-182.9-36.7-249.6-103.4C181.7 694.9 145 606.3 145 512s36.7-182.9 103.4-249.6C315.1 195.7 403.7 159 498 159c62.1 0 123.1 16.3 176.5 47.2 14.3 8.3 32.7 3.4 41-10.9 8.3-14.3 3.4-32.7-10.9-41C642 118.1 570.6 99 498 99c-55.7 0-109.8 10.9-160.8 32.5C288.1 152.3 243.9 182 206 220c-37.9 37.9-67.7 82.1-88.5 131.3C95.9 402.2 85 456.3 85 512c0 55.7 10.9 109.8 32.5 160.8C138.3 722 168.1 766.1 206 804c37.9 37.9 82.1 67.7 131.3 88.5 50.9 21.5 105 32.5 160.8 32.5 72.6 0 144-19.1 206.5-55.3 14.3-8.3 19.2-26.6 10.9-41-8.3-14.3-26.7-19.2-41-10.9z" p-id="5242"></path><path d="M930.6 532.1c0.1-0.2 0.3-0.3 0.4-0.5 0.2-0.2 0.4-0.4 0.5-0.6 0.2-0.2 0.3-0.4 0.5-0.7 0.1-0.2 0.3-0.3 0.4-0.5 0.2-0.2 0.4-0.5 0.5-0.8 0.1-0.1 0.2-0.3 0.3-0.4 0-0.1 0.1-0.1 0.1-0.2 0.1-0.2 0.3-0.4 0.4-0.6 0.1-0.1 0.2-0.3 0.3-0.4 0.2-0.3 0.3-0.6 0.5-0.8 0.1-0.1 0.2-0.3 0.2-0.4 0.1-0.3 0.3-0.6 0.4-0.8 0.1-0.2 0.2-0.3 0.2-0.5 0.1-0.3 0.2-0.5 0.4-0.8 0.1-0.2 0.2-0.4 0.2-0.5 0.1-0.3 0.2-0.5 0.3-0.8 0.1-0.2 0.2-0.4 0.2-0.6 0.1-0.2 0.2-0.5 0.3-0.7 0.1-0.2 0.1-0.4 0.2-0.7 0.1-0.2 0.1-0.5 0.2-0.7 0.1-0.2 0.1-0.5 0.2-0.7 0.1-0.3 0.1-0.5 0.2-0.8 0-0.2 0.1-0.4 0.1-0.7 0.1-0.3 0.1-0.6 0.2-0.9 0-0.2 0.1-0.4 0.1-0.6 0.1-0.4 0.1-0.7 0.1-1.1v-0.3c0.2-2 0.2-4.1 0-6.1v-0.1c0-0.5-0.1-0.9-0.2-1.4 0-0.1 0-0.2-0.1-0.3-0.1-0.4-0.1-0.8-0.2-1.1 0-0.1-0.1-0.3-0.1-0.4-0.1-0.4-0.2-0.7-0.2-1.1 0-0.1-0.1-0.2-0.1-0.4-0.1-0.4-0.2-0.7-0.3-1.1 0-0.1-0.1-0.2-0.1-0.3-0.1-0.4-0.2-0.7-0.4-1.1 0-0.1-0.1-0.1-0.1-0.2-0.1-0.4-0.3-0.8-0.5-1.2v-0.1c-1.5-3.4-3.6-6.7-6.4-9.5l-0.2-0.2L739.8 301c-11.7-11.7-30.7-11.7-42.4 0s-11.7 30.7 0 42.4L835.9 482H436c-16.6 0-30 13.4-30 30s13.4 30 30 30h399.9L697.4 680.5c-11.7 11.7-11.7 30.7 0 42.4 5.9 5.9 13.5 8.8 21.2 8.8 7.7 0 15.4-2.9 21.2-8.8l189.7-189.7c0.4-0.3 0.7-0.7 1.1-1.1z" p-id="5243"></path></svg>