<?xml version="1.0" standalone="no"?><!DOCTYPE svg PUBLIC "-//W3C//DTD SVG 1.1//EN" "http://www.w3.org/Graphics/SVG/1.1/DTD/svg11.dtd"><svg t="1656156294190" class="icon" viewBox="0 0 1024 1024" version="1.1" xmlns="http://www.w3.org/2000/svg" p-id="1307" xmlns:xlink="http://www.w3.org/1999/xlink" width="48" height="48"><defs><style type="text/css"></style></defs><path d="M851.536842 978.189474H377.263158c-35.031579 0-64.673684-10.778947-83.536842-32.336842-29.642105-32.336842-24.252632-80.842105-24.252632-80.842106V167.073684h377.263158c8.084211 0 13.473684 5.389474 13.473684 13.473684s-5.389474 13.473684-13.473684 13.473685H296.421053v670.989473c0 2.694737-5.389474 37.726316 16.168421 61.978948 13.473684 16.168421 35.031579 21.557895 61.978947 21.557894h466.189474c2.694737 0 26.947368 2.694737 40.421052-8.08421 8.084211-5.389474 10.778947-16.168421 10.778948-29.642105V350.315789h-183.242106V183.242105c0-10.778947 5.389474-18.863158 10.778948-21.557894 10.778947-8.084211 24.252632-5.389474 26.947368-2.694737h2.694737l169.768421 169.768421v584.757894c0 21.557895-8.084211 40.421053-21.557895 51.2-13.473684 10.778947-35.031579 13.473684-45.810526 13.473685zM735.663158 323.368421h140.126316l-140.126316-140.126316h-2.694737l2.694737 140.126316z" fill="" p-id="1308"></path><path d="M811.115789 482.357895H388.042105c-8.084211 0-13.473684-5.389474-13.473684-13.473684s5.389474-13.473684 13.473684-13.473685h423.073684c8.084211 0 13.473684 5.389474 13.473685 13.473685s-5.389474 13.473684-13.473685 13.473684zM811.115789 598.231579H388.042105c-8.084211 0-13.473684-5.389474-13.473684-13.473684s5.389474-13.473684 13.473684-13.473684h423.073684c8.084211 0 13.473684 5.389474 13.473685 13.473684s-5.389474 13.473684-13.473685 13.473684zM811.115789 727.578947H388.042105c-8.084211 0-13.473684-5.389474-13.473684-13.473684s5.389474-13.473684 13.473684-13.473684h423.073684c8.084211 0 13.473684 5.389474 13.473685 13.473684s-5.389474 13.473684-13.473685 13.473684z" fill="" p-id="1309"></path><path d="M269.473684 846.147368H188.631579c-26.947368 0-45.810526-5.389474-56.589474-18.863157-16.168421-18.863158-16.168421-45.810526-13.473684-70.063158v-16.168421V53.894737h584.757895c70.063158 0 88.926316 59.284211 88.926316 91.621052 0 8.084211-5.389474 13.473684-13.473685 13.473685s-13.473684-5.389474-13.473684-13.473685c0-5.389474-2.694737-64.673684-61.978947-64.673684H145.515789V757.221053c0 18.863158-2.694737 37.726316 8.084211 48.505263 8.084211 8.084211 18.863158 10.778947 37.726316 10.778947h80.842105c8.084211 0 13.473684 5.389474 13.473684 13.473684s-8.084211 16.168421-16.168421 16.168421z" fill="" p-id="1310"></path></svg>