<?xml version="1.0" standalone="no"?><!DOCTYPE svg PUBLIC "-//W3C//DTD SVG 1.1//EN" "http://www.w3.org/Graphics/SVG/1.1/DTD/svg11.dtd"><svg t="1656155604534" class="icon" viewBox="0 0 1024 1024" version="1.1" xmlns="http://www.w3.org/2000/svg" p-id="7663" xmlns:xlink="http://www.w3.org/1999/xlink" width="48" height="48"><defs><style type="text/css"></style></defs><path d="M71.4 888.1c-0.3 1.2-0.6 2.5-0.7 3.8-0.2 1.1-0.2 2.3-0.1 3.3 0.6 12.2 10.6 21.9 23 21.9s22.4-9.7 23-21.9c36.5-182.9 198.2-320.7 391.9-320.7h3.5v-52.8c-219.6 0.1-402.3 158-440.6 366.4z" fill="#515151" p-id="7664"></path><path d="M512.5 63.4c-141.2 0-255.7 114.5-255.7 255.7s114.5 255.7 255.7 255.7 255.7-114.5 255.7-255.7S653.7 63.4 512.5 63.4z m0 458.8c-112.2 0-203.1-90.9-203.1-203.1S400.3 116 512.5 116s203.1 90.9 203.1 203.1-90.9 203.1-203.1 203.1z" fill="#515151" p-id="7665"></path><path d="M922.7 810.3H638c-20.2 0-36.7-16.5-36.7-36.7 0-20.2 16.5-36.7 36.7-36.7h284.7c20.2 0 36.7 16.5 36.7 36.7-0.1 20.2-16.6 36.7-36.7 36.7z" fill="#515151" p-id="7666"></path><path d="M817 631.3V916c0 20.2-16.5 36.7-36.7 36.7-20.2 0-36.7-16.5-36.7-36.7V631.3c0-20.2 16.5-36.7 36.7-36.7 20.2 0.1 36.7 16.6 36.7 36.7z" fill="#515151" p-id="7667"></path></svg>